<svg width="100%" height="100%" id="svg" viewBox="0 0 1440 700" xmlns="http://www.w3.org/2000/svg" class="transition duration-300 ease-in-out delay-150"><defs><linearGradient id="gradient" x1="13%" y1="17%" x2="87%" y2="83%"><stop offset="5%" stop-color="#fcb90066"></stop><stop offset="95%" stop-color="#00d08466"></stop></linearGradient></defs><path d="M 0,700 C 0,700 0,175 0,175 C 72.08794228787357,155.2061147372037 144.17588457574715,135.4122294744074 204,140 C 263.82411542425285,144.5877705255926 311.38440398488495,173.55719683957406 393,166 C 474.61559601511505,158.44280316042594 590.2864994847131,114.35898316729646 654,129 C 717.7135005152869,143.64101683270354 729.4695980762625,217.0068704912401 793,229 C 856.5304019237375,240.9931295087599 971.835108210237,191.61353486774303 1049,166 C 1126.164891789763,140.38646513225697 1165.1899690827895,138.5389900377877 1224,144 C 1282.8100309172105,149.4610099622123 1361.4050154586052,162.23050498110615 1440,175 C 1440,175 1440,700 1440,700 Z" stroke="none" stroke-width="0" fill="url(#gradient)" class="transition-all duration-300 ease-in-out delay-150 path-0" transform="rotate(-180 720 350)"></path><defs><linearGradient id="gradient" x1="13%" y1="17%" x2="87%" y2="83%"><stop offset="5%" stop-color="#fcb90088"></stop><stop offset="95%" stop-color="#00d08488"></stop></linearGradient></defs><path d="M 0,700 C 0,700 0,350 0,350 C 66.89041566472002,331.39470972174513 133.78083132944005,312.7894194434902 213,328 C 292.21916867055995,343.2105805565098 383.7670903469597,392.23703194778426 445,398 C 506.2329096530403,403.76296805221574 537.1508072827208,366.26245276537276 606,353 C 674.8491927172792,339.73754723462724 781.6296805221573,350.7131569907248 857,360 C 932.3703194778427,369.2868430092752 976.3304706286499,376.88491927172794 1033,370 C 1089.66952937135,363.11508072827206 1159.048436963243,341.7471659223634 1229,336 C 1298.951563036757,330.2528340776366 1369.4757815183784,340.1264170388183 1440,350 C 1440,350 1440,700 1440,700 Z" stroke="none" stroke-width="0" fill="url(#gradient)" class="transition-all duration-300 ease-in-out delay-150 path-1" transform="rotate(-180 720 350)"></path><defs><linearGradient id="gradient" x1="13%" y1="17%" x2="87%" y2="83%"><stop offset="5%" stop-color="#fcb900ff"></stop><stop offset="95%" stop-color="#00d084ff"></stop></linearGradient></defs><path d="M 0,700 C 0,700 0,525 0,525 C 44.818962555822736,505.00068704912405 89.63792511164547,485.00137409824805 172,487 C 254.36207488835453,488.99862590175195 374.26726210924085,512.995190656132 442,525 C 509.73273789075915,537.004809343868 525.2930264513911,537.0178632772244 583,531 C 640.7069735486089,524.9821367227756 740.5606320851942,512.9333562349708 815,526 C 889.4393679148058,539.0666437650292 938.4644452078321,577.2487117828923 999,577 C 1059.5355547921679,576.7512882171077 1131.5815870834765,538.0717966334594 1207,523 C 1282.4184129165235,507.92820336654063 1361.2092064582616,516.4641016832703 1440,525 C 1440,525 1440,700 1440,700 Z" stroke="none" stroke-width="0" fill="url(#gradient)" class="transition-all duration-300 ease-in-out delay-150 path-2" transform="rotate(-180 720 350)"></path></svg>